<?xml version="1.0" encoding="utf-8"?>
<!-- Generator: Adobe Illustrator 16.0.0, SVG Export Plug-In . SVG Version: 6.00 Build 0)  -->
<!DOCTYPE svg PUBLIC "-//W3C//DTD SVG 1.1//EN" "http://www.w3.org/Graphics/SVG/1.1/DTD/svg11.dtd">
<svg version="1.1" xmlns="http://www.w3.org/2000/svg" xmlns:xlink="http://www.w3.org/1999/xlink" x="0px" y="0px"
	 width="120.966px" height="82.844px" viewBox="0 0 120.966 82.844" enable-background="new 0 0 120.966 82.844"
	 xml:space="preserve">
<g id="Calque_2_-_copie">
	<path stroke="#000000" stroke-width="2" stroke-miterlimit="10" d="M113.342,56.474c0,0-37.008-2.978-72.717,9.297
		c0,0-3.254-0.371-1.394,4.558c0,0,2.987,9.04,3.069,11.438c0.056,1.689-39.307-24.563-39.307-24.563s-0.625-0.546,0-2.032
		c0,0,18.476-41.475,20.244-42.403c0.707-0.372,3.161,11.531,3.161,11.531s0.093,2.046,2.977,1.116c0,0,19.899-9.162,77.646-8.742
		c0,0,1.719-0.372,1.396,1.396l6.789,36.543C115.206,54.612,116.411,57.217,113.342,56.474z"/>
</g>
<g id="Calque_2">
	<g>
		<path fill="#FFFFFF" d="M118.598,47.563c0,0-39.565-3.182-77.74,9.94c0,0-3.48-0.396-1.491,4.872c0,0,3.194,9.663,3.281,12.229
			C42.708,76.41,0.626,48.341,0.626,48.341s-0.667-0.581,0-2.17c0,0,19.752-44.339,21.642-45.333
			c0.756-0.397,3.379,12.328,3.379,12.328s0.101,2.188,3.182,1.193c0,0,21.274-9.793,83.01-9.346c0,0,1.84-0.397,1.493,1.491
			l7.256,39.069C120.588,45.574,121.876,48.358,118.598,47.563z"/>
		<path d="M118.586,47.663c-3.272-0.211-6.555-0.286-9.836-0.303c-3.282,0.015-6.564,0.096-9.842,0.255l-4.912,0.312l-4.902,0.424
			c-1.633,0.146-3.26,0.355-4.89,0.529c-1.631,0.165-3.253,0.402-4.875,0.633c-1.621,0.239-3.248,0.428-4.859,0.728l-4.841,0.832
			l-4.814,0.958l-2.406,0.48l-2.387,0.567l-4.776,1.113l-4.727,1.296l-2.367,0.636l-2.338,0.732l-4.677,1.463l-0.185,0.058
			l-0.193-0.017c-0.144-0.012-0.444,0.025-0.599,0.104c-0.177,0.078-0.294,0.177-0.38,0.347c-0.199,0.313-0.229,0.929-0.112,1.54
			c0.044,0.306,0.136,0.625,0.216,0.938l0.33,0.998l0.647,2.056c0.424,1.372,0.817,2.753,1.194,4.143
			c0.377,1.391,0.74,2.782,1.022,4.225c0.084,0.348,0.14,0.725,0.179,1.116l0.066,0.577l0.017,0.145l0.002,0.018
			c-0.005,0.076,0.014-0.144-0.011,0.174l-0.006,0.033c-0.02,0.13-0.144,0.353-0.282,0.447c-0.087,0.063-0.158,0.095-0.246,0.125
			c-0.258,0.064-0.352,0.031-0.445,0.023c-0.081-0.015-0.154-0.031-0.21-0.049c-0.846-0.289-1.413-0.64-2.072-0.99
			c-1.267-0.707-2.492-1.452-3.714-2.205c-2.439-1.51-4.847-3.06-7.246-4.62L0.44,48.619l-0.026-0.017l-0.008-0.009
			C0.033,48.184,0.002,47.778,0,47.382c0.004-0.395,0.102-0.761,0.226-1.104c0.258-0.687,0.546-1.265,0.818-1.903l1.661-3.739
			l3.303-7.487l6.673-14.947c2.263-4.971,4.504-9.937,7.034-14.818c0.32-0.611,0.647-1.217,1.009-1.829
			c0.176-0.302,0.37-0.613,0.615-0.941c0.031-0.06,0.174-0.21,0.305-0.323c0.066-0.058,0.134-0.113,0.204-0.164l0.026-0.019
			c-0.031,0.007,0.375-0.144,0.21-0.081l0.016-0.004l0.077-0.014c0.15-0.022,0.327-0.002,0.468,0.053
			c0.112,0.046,0.121,0.06,0.183,0.097c0.327,0.25,0.332,0.353,0.423,0.475c0.062,0.107,0.111,0.207,0.154,0.299
			c0.596,1.416,0.9,2.699,1.271,4.043c0.699,2.661,1.301,5.323,1.875,8.005l0.018,0.144c-0.001-0.037,0.005,0.036,0.017,0.063
			c0.008,0.038,0.025,0.073,0.036,0.109c0.035,0.064,0.063,0.13,0.108,0.169c0.078,0.087,0.178,0.146,0.354,0.185
			c0.167,0.046,0.408,0.036,0.657,0.007c0.255-0.037,0.526-0.111,0.8-0.192l-0.104,0.041c0.859-0.377,1.702-0.667,2.541-0.949
			c0.844-0.274,1.677-0.616,2.531-0.826l5.104-1.414l5.16-1.115c1.72-0.371,3.437-0.77,5.177-1.007l5.204-0.831
			c1.739-0.242,3.467-0.585,5.215-0.744l10.471-1.065l2.618-0.266c0.873-0.075,1.749-0.103,2.624-0.157l5.25-0.287l5.25-0.286
			c1.75-0.09,3.499-0.208,5.25-0.253c7.008,0.001,14.013-0.06,21.014-0.006l-0.155,0.016c0.188-0.035,0.305-0.04,0.46-0.043
			c0.146-0.002,0.296,0.006,0.453,0.035c0.307,0.051,0.667,0.179,0.956,0.462c0.288,0.279,0.605,0.669,0.636,0.985
			c0.039,0.325,0.122,0.603,0.122,0.868V6.384l3.118,19.599c1.087,6.534,2.161,13.056,3.351,19.571l-0.051-0.027
			c0.137,0.322,0.206,0.651,0.229,1.003c0.014,0.174-0.012,0.355-0.063,0.531c-0.05,0.178-0.164,0.337-0.302,0.465
			c-0.149,0.114-0.317,0.193-0.493,0.23c-0.172,0.045-0.35,0.044-0.521,0.052c-0.17-0.017-0.344-0.018-0.51-0.048L118.586,47.663z
			 M118.61,47.613l0.492,0.019c0.16,0.028,0.321-0.011,0.481,0.005c0.157-0.008,0.32-0.027,0.467-0.068
			c0.153-0.033,0.285-0.109,0.402-0.197c0.103-0.101,0.187-0.225,0.226-0.37c0.041-0.143,0.055-0.3,0.041-0.457
			c-0.021-0.311-0.11-0.633-0.235-0.92l-0.007-0.015l-0.002-0.013c-1.229-6.508-2.491-13.01-3.823-19.499l-3.973-19.47l-0.019-0.092
			l0.019-0.15c0.021-0.168,0.032-0.329,0.01-0.441c-0.018-0.12-0.057-0.152-0.082-0.178c-0.027-0.023-0.097-0.058-0.221-0.073
			c-0.059-0.009-0.13-0.011-0.202-0.006c-0.064,0.002-0.167,0.016-0.194,0.023l-0.042,0.012l-0.113,0.004
			c-6.982,0.233-13.961,0.352-20.937,0.533L80.454,6.872l-5.222,0.304c-0.87,0.056-1.742,0.087-2.609,0.165l-2.599,0.274
			L59.63,8.709c-1.735,0.164-3.441,0.51-5.164,0.756l-5.161,0.775c-1.729,0.219-3.423,0.597-5.124,0.948l-5.103,1.051l-5.016,1.339
			c-0.847,0.199-1.639,0.52-2.46,0.777c-0.821,0.267-1.634,0.541-2.38,0.858l-0.077,0.033l-0.028,0.008
			c-0.363,0.106-0.732,0.204-1.136,0.258c-0.407,0.044-0.84,0.068-1.32-0.049c-0.469-0.102-0.985-0.369-1.337-0.79
			c-0.184-0.204-0.308-0.439-0.412-0.674c-0.045-0.12-0.089-0.239-0.118-0.363c-0.032-0.134-0.053-0.226-0.068-0.427l0.018,0.144
			c-0.545-2.656-1.121-5.32-1.757-7.948c-0.327-1.288-0.659-2.67-1.107-3.776l-0.076-0.157c0.002-0.022-0.083-0.07,0.106,0.079
			c0.044,0.027,0.036,0.024,0.128,0.064c0.12,0.05,0.276,0.065,0.406,0.038c0.095-0.022,0.038-0.01,0.046-0.011l-0.015,0.003
			C22.3,1.71,22.694,1.56,22.656,1.576l0.003,0.003c0.007,0.007,0.014,0.011,0.019,0.012c0.008,0.006,0.017-0.036-0.041,0.052
			c-0.167,0.217-0.34,0.479-0.512,0.764c-0.342,0.557-0.672,1.146-0.995,1.737c-1.293,2.371-2.499,4.817-3.715,7.251l-3.594,7.341
			c-2.374,4.907-4.7,9.84-7.009,14.78l-3.439,7.422l-1.689,3.725c-0.269,0.613-0.589,1.258-0.813,1.847
			c-0.111,0.293-0.191,0.599-0.194,0.885c-0.027,0.274,0.078,0.592,0.169,0.695l-0.034-0.026l7.132,4.766L15.14,57.5l7.218,4.635
			c2.41,1.538,4.848,3.033,7.281,4.532c2.437,1.494,4.88,2.976,7.345,4.411c1.232,0.715,2.47,1.425,3.719,2.079
			c0.605,0.312,1.294,0.669,1.809,0.825c0.029,0.008,0.044,0.01,0.051,0.011c-0.006,0.004-0.008-0.021-0.18,0.021
			c-0.068,0.021-0.116,0.045-0.185,0.097c-0.125,0.078-0.233,0.284-0.241,0.396l0.005-0.033c-0.024,0.307-0.008,0.076-0.014,0.141
			l-0.002-0.016l-0.019-0.121l-0.073-0.486c-0.039-0.32-0.094-0.648-0.187-0.995c-0.302-1.357-0.695-2.727-1.103-4.086
			c-0.402-1.362-0.844-2.717-1.276-4.073l-0.658-2.031l-0.352-1.036c-0.101-0.376-0.21-0.747-0.273-1.147
			c-0.127-0.773-0.218-1.692,0.29-2.646c0.238-0.47,0.689-0.873,1.167-1.077c0.498-0.212,0.925-0.29,1.494-0.252l-0.377,0.041
			l4.715-1.518l2.358-0.759l2.388-0.655l4.788-1.264l4.832-1.072l2.419-0.518l2.436-0.431c1.625-0.279,3.244-0.593,4.874-0.838
			l4.898-0.668c1.629-0.246,3.272-0.379,4.908-0.563c1.638-0.175,3.273-0.356,4.917-0.466c1.642-0.121,3.279-0.276,4.922-0.368
			l4.928-0.262l4.932-0.148l4.93-0.079l4.931,0.099c3.286,0.037,6.572,0.434,9.854,0.434H118.61z"/>
	</g>
</g>
</svg>
